<svg xmlns="http://www.w3.org/2000/svg" version="1.1" xmlns:xlink="http://www.w3.org/1999/xlink" xmlns:svgjs="http://svgjs.dev/svgjs" width="1440" height="560" preserveAspectRatio="none" viewBox="0 0 1440 560"><g mask="url(&quot;#SvgjsMask1001&quot;)" fill="none"><path d="M 0,144 C 57.6,125.2 172.8,25.8 288,50 C 403.2,74.2 460.8,254.4 576,265 C 691.2,275.6 748.8,116.8 864,103 C 979.2,89.2 1036.8,193 1152,196 C 1267.2,199 1382.4,133.6 1440,118L1440 560L0 560z" fill="#184a7e"></path><path d="M 0,531 C 96,488.8 288,320 480,320 C 672,320 768,532.6 960,531 C 1152,529.4 1344,355.8 1440,312L1440 560L0 560z" fill="#2264ab"></path></g><defs><mask id="SvgjsMask1001"><rect width="1440" height="560" fill="#ffffff"></rect></mask></defs></svg>